<?xml version="1.0" encoding="utf-8"?>
<!-- Generator: Adobe Illustrator 27.5.0, SVG Export Plug-In . SVG Version: 6.00 Build 0)  -->
<svg version="1.1" id="Layer_1" xmlns="http://www.w3.org/2000/svg" xmlns:xlink="http://www.w3.org/1999/xlink" x="0px" y="0px"
	 viewBox="0 0 28.5 39.8" style="enable-background:new 0 0 28.5 39.8;" xml:space="preserve">
<style type="text/css">
	.st0{clip-path:url(#SVGID_00000160878368955460602300000000275862518010496440_);}
	.st1{fill:#FFFFFF;}
</style>
<g id="Group_3302" transform="translate(0 0)">
	<g>
		<defs>
			<rect id="SVGID_1_" width="28.5" height="39.8"/>
		</defs>
		<clipPath id="SVGID_00000134928527651774459860000004676053206515574181_">
			<use xlink:href="#SVGID_1_"  style="overflow:visible;"/>
		</clipPath>
		
			<g id="Group_3301" transform="translate(0 0)" style="clip-path:url(#SVGID_00000134928527651774459860000004676053206515574181_);">
			<path id="Path_10800" class="st1" d="M28.5,0.9v9.5c0,0.2-0.1,0.4-0.3,0.6L21,17.3l-5.6,4.9c-0.7,0.6-1.7,0.6-2.3,0l-5.6-4.9
				L0.3,11C0.1,10.8,0,10.6,0,10.4V0.9C0,0.4,0.4,0,0.9,0c0.2,0,0.4,0.1,0.6,0.2l12.7,11.1L27,0.2c0.4-0.3,1-0.3,1.3,0.1
				C28.4,0.5,28.5,0.7,28.5,0.9"/>
			<path id="Path_10801" class="st1" d="M28.5,18.1v9.5c0,0.2-0.1,0.4-0.3,0.6L21,34.5l-5.6,4.9c-0.7,0.6-1.7,0.6-2.3,0l-5.6-4.9
				l-7.2-6.3C0.1,28,0,27.8,0,27.6v-9.5c0-0.5,0.4-0.9,0.9-0.9c0.2,0,0.4,0.1,0.6,0.2l12.7,11.1L27,17.4c0.4-0.3,1-0.3,1.3,0.1
				C28.4,17.7,28.5,17.9,28.5,18.1"/>
		</g>
	</g>
</g>
</svg>
