<?xml version="1.0" encoding="UTF-8"?>
<svg id="Layer_1" data-name="Layer 1" xmlns="http://www.w3.org/2000/svg" xmlns:xlink="http://www.w3.org/1999/xlink" version="1.1" viewBox="0 0 1301 1302">
  <defs>
    <style>
      .cls-1 {
        mix-blend-mode: overlay;
        opacity: .2;
      }

      .cls-1, .cls-2 {
        isolation: isolate;
      }

      .cls-3 {
        clip-path: url(#clippath);
      }

      .cls-4 {
        fill: none;
      }

      .cls-4, .cls-5, .cls-6 {
        stroke-width: 0px;
      }

      .cls-7 {
        clip-path: url(#clippath-1);
      }

      .cls-8 {
        clip-path: url(#clippath-4);
      }

      .cls-9 {
        clip-path: url(#clippath-3);
      }

      .cls-10 {
        clip-path: url(#clippath-2);
      }

      .cls-11 {
        clip-path: url(#clippath-7);
      }

      .cls-12 {
        clip-path: url(#clippath-8);
      }

      .cls-13 {
        clip-path: url(#clippath-6);
      }

      .cls-14 {
        clip-path: url(#clippath-5);
      }

      .cls-15 {
        clip-path: url(#clippath-9);
      }

      .cls-5 {
        fill: #000;
      }

      .cls-16 {
        clip-path: url(#clippath-14);
      }

      .cls-17 {
        clip-path: url(#clippath-13);
      }

      .cls-18 {
        clip-path: url(#clippath-12);
      }

      .cls-19 {
        clip-path: url(#clippath-10);
      }

      .cls-20 {
        clip-path: url(#clippath-15);
      }

      .cls-21 {
        clip-path: url(#clippath-16);
      }

      .cls-22 {
        clip-path: url(#clippath-11);
      }

      .cls-6 {
        fill: #005b96;
      }
    </style>
    <clipPath id="clippath">
      <rect class="cls-4" width="1301" height="1302"/>
    </clipPath>
    <clipPath id="clippath-1">
      <rect class="cls-4" width="1301" height="1302"/>
    </clipPath>
    <clipPath id="clippath-2">
      <rect class="cls-4" x="565.1" y="784.9" width="272.6" height="218.4" transform="translate(-75.3 64.5) rotate(-5)"/>
    </clipPath>
    <clipPath id="clippath-3">
      <rect class="cls-4" x="-141.7" y="1216.2" width="272.7" height="218.4" transform="translate(-92.5 2.9) rotate(-4)"/>
    </clipPath>
    <clipPath id="clippath-4">
      <rect class="cls-4" x="1160.3" y="1216.2" width="272.7" height="218.4" transform="translate(-89.3 93.7) rotate(-4)"/>
    </clipPath>
    <clipPath id="clippath-5">
      <rect class="cls-4" x="1160.3" y="-86.8" width="272.7" height="218.4" transform="translate(1.6 90.5) rotate(-4)"/>
    </clipPath>
    <clipPath id="clippath-6">
      <rect class="cls-4" x="-141.7" y="-86.8" width="272.7" height="218.4" transform="translate(-1.6 -.3) rotate(-4)"/>
    </clipPath>
    <clipPath id="clippath-7">
      <rect class="cls-4" x="985.8" y="796" width="298.3" height="239" transform="translate(-113.5 1668.9) rotate(-70)"/>
    </clipPath>
    <clipPath id="clippath-8">
      <rect class="cls-4" x="74.9" y="808.7" width="298.2" height="238.9" transform="translate(-344.9 161.3) rotate(-23)"/>
    </clipPath>
    <clipPath id="clippath-9">
      <rect class="cls-4" x="860.4" y="278.2" width="266" height="213" transform="translate(-52.9 584.9) rotate(-32)"/>
    </clipPath>
    <clipPath id="clippath-10">
      <rect class="cls-4" x="6.1" y="361.5" width="213" height="266" transform="translate(-388.1 413.7) rotate(-68)"/>
    </clipPath>
    <clipPath id="clippath-11">
      <rect class="cls-4" x="1309.5" y="361.6" width="213" height="266" transform="translate(427 1622.2) rotate(-68)"/>
    </clipPath>
    <clipPath id="clippath-12">
      <rect class="cls-4" x="422.9" y="319.5" width="234.8" height="293.1" transform="translate(-155.6 308.2) rotate(-28)"/>
    </clipPath>
    <clipPath id="clippath-13">
      <rect class="cls-4" x="786.6" y="1147.9" width="190.1" height="237.3" transform="translate(-515.2 610.5) rotate(-30)"/>
    </clipPath>
    <clipPath id="clippath-14">
      <rect class="cls-4" x="786.6" y="-155.4" width="190.1" height="237.3" transform="translate(136.5 435.9) rotate(-30)"/>
    </clipPath>
    <clipPath id="clippath-15">
      <rect class="cls-4" x="363.3" y="-68" width="195.7" height="244.3" transform="translate(.6 113.2) rotate(-14)"/>
    </clipPath>
    <clipPath id="clippath-16">
      <rect class="cls-4" x="363.3" y="1234" width="195.7" height="244.3" transform="translate(-314.4 151.8) rotate(-14)"/>
    </clipPath>
  </defs>
  <g class="cls-2">
    <g id="Layer_1-2" data-name="Layer 1-2">
      <g class="cls-3">
        <g id="jpg">
          <rect class="cls-6" width="1301" height="1302"/>
          <g class="cls-7">
            <g id="yellow-bg">
              <g id="Group_29" data-name="Group 29">
                <rect id="Rectangle_9" data-name="Rectangle 9" class="cls-6" width="1301" height="1302"/>
                <g id="Group_28" data-name="Group 28" class="cls-1">
                  <g id="Group_13" data-name="Group 13">
                    <g class="cls-10">
                      <g id="Group_12" data-name="Group 12">
                        <path id="Path_69" data-name="Path 69" class="cls-5" d="M643.6,912.2l-64.7,5.6c-6.8.6-12.7-4.4-13.3-11.2l-3.2-36.9c-.6-6.8,4.4-12.7,11.2-13.3l64.7-5.6c6.8-.6,12.7,4.4,13.3,11.2l3.2,36.9c.6,6.8-4.4,12.7-11.2,13.3"/>
                        <rect id="Rectangle_7" data-name="Rectangle 7" class="cls-5" x="631.5" y="972.1" width="171.5" height="11.7" transform="translate(-82.5 66.2) rotate(-5)"/>
                        <path id="Path_70" data-name="Path 70" class="cls-5" d="M805.6,775.5l-201.7,17.6c-12.1,1.1-21.1,11.8-20.1,23.9l2.5,28.3,51-4.5c12.3-1.1,23.1,8,24.2,20.3l3.2,36.9c1.1,12.3-8,23.1-20.3,24.2l-51,4.5,2.4,27.2c1.1,12.1,11.8,21.1,23.9,20h0l199.4-17.4c7-.7,13.1,4.4,13.8,11.4s-4.4,13.1-11.4,13.8h-.2l-188.5,16.5,1,11.6,189.8-16.6c12.7-1.1,22-12.3,20.9-24.9h0l-15.1-172.7c-1.1-12.1-11.8-21.1-23.9-20.1h0"/>
                      </g>
                    </g>
                  </g>
                  <g id="Group_20" data-name="Group 20">
                    <g class="cls-9">
                      <g id="Group_12-2" data-name="Group 12-2">
                        <path id="Path_70-2" data-name="Path 70-2" class="cls-5" d="M101,1208.5l-202,14.1c-12.2.8-21.3,11.4-20.5,23.5l2,28.3,51.1-3.6c12.3-.9,23,8.4,23.8,20.7l2.6,37c.9,12.3-8.4,22.9-20.7,23.8l-51.1,3.6,1.9,27.2c.8,12.1,11.4,21.3,23.5,20.5h0l199.7-14c7-.5,13.1,4.7,13.6,11.6s-4.7,13.1-11.6,13.6h-.2l-188.8,13.2.8,11.6,190.1-13.3c12.7-.9,22.2-11.9,21.4-24.6h0l-12.1-172.9c-.8-12.2-11.4-21.3-23.5-20.5h0"/>
                      </g>
                    </g>
                  </g>
                  <g id="Group_21" data-name="Group 21">
                    <g class="cls-8">
                      <g id="Group_12-3" data-name="Group 12-3">
                        <path id="Path_69-3" data-name="Path 69-3" class="cls-5" d="M1238.6,1342.4l-64.8,4.5c-6.8.5-12.7-4.6-13.1-11.4l-2.6-37c-.5-6.8,4.6-12.7,11.4-13.1l64.8-4.5c6.8-.5,12.7,4.6,13.1,11.4l2.6,37c.5,6.8-4.6,12.7-11.4,13.1"/>
                        <path id="Path_70-3" data-name="Path 70-3" class="cls-5" d="M1403,1208.5l-202,14.1c-12.2.8-21.3,11.4-20.5,23.5l2,28.3,51.1-3.6c12.3-.9,23,8.4,23.8,20.7l2.6,37c.9,12.3-8.4,22.9-20.7,23.8l-51.1,3.6,1.9,27.2c.8,12.1,11.4,21.3,23.5,20.5h0l199.7-14c7-.5,13.1,4.7,13.6,11.6s-4.7,13.1-11.6,13.6h-.2l-188.8,13.2.8,11.6,190.1-13.3c12.7-.9,22.2-11.9,21.4-24.6h0l-12.1-172.9c-.8-12.2-11.4-21.3-23.5-20.5h0"/>
                      </g>
                    </g>
                  </g>
                  <g id="Group_22" data-name="Group 22">
                    <g class="cls-14">
                      <g id="Group_12-4" data-name="Group 12-4">
                        <path id="Path_69-4" data-name="Path 69-4" class="cls-5" d="M1238.6,39.4l-64.8,4.5c-6.8.5-12.7-4.6-13.1-11.4l-2.6-37c-.5-6.8,4.6-12.7,11.4-13.1l64.8-4.5c6.8-.5,12.7,4.6,13.1,11.4l2.6,37c.5,6.8-4.6,12.7-11.4,13.1"/>
                        <rect id="Rectangle_7-4" data-name="Rectangle 7-4" class="cls-5" x="1225.3" y="100.7" width="171.5" height="11.7" transform="translate(-4.2 91.7) rotate(-4)"/>
                        <path id="Path_70-4" data-name="Path 70-4" class="cls-5" d="M1403-94.5l-202,14.1c-12.2.8-21.3,11.4-20.5,23.5l2,28.3,51.1-3.6c12.3-.9,23,8.4,23.8,20.7l2.6,37c.9,12.3-8.4,22.9-20.7,23.8l-51.1,3.6,1.9,27.2c.8,12.1,11.4,21.3,23.5,20.5h0l199.7-14c7-.5,13.1,4.7,13.6,11.6s-4.7,13.1-11.6,13.6h-.2l-188.8,13.2.8,11.6,190.1-13.3c12.7-.9,22.2-11.9,21.4-24.6h0l-12.1-172.9c-.8-12.2-11.4-21.3-23.5-20.5h0"/>
                      </g>
                    </g>
                  </g>
                  <g id="Group_23" data-name="Group 23">
                    <g class="cls-13">
                      <g id="Group_12-5" data-name="Group 12-5">
                        <rect id="Rectangle_7-5" data-name="Rectangle 7-5" class="cls-5" x="-76.7" y="100.7" width="171.5" height="11.7" transform="translate(-7.4 .9) rotate(-4)"/>
                        <path id="Path_70-5" data-name="Path 70-5" class="cls-5" d="M101-94.5l-202,14.1c-12.2.8-21.3,11.4-20.5,23.5l2,28.3,51.1-3.6c12.3-.9,23,8.4,23.8,20.7l2.6,37c.9,12.3-8.4,22.9-20.7,23.8l-51.1,3.6,1.9,27.2c.8,12.1,11.4,21.3,23.5,20.5h0l199.7-14c7-.5,13.1,4.7,13.6,11.6s-4.7,13.1-11.6,13.6h-.2l-188.8,13.2.8,11.6,190.1-13.3c12.7-.9,22.2-11.9,21.4-24.6h0l-12.1-172.9c-.8-12.2-11.4-21.3-23.5-20.5h0"/>
                      </g>
                    </g>
                  </g>
                  <g id="Group_14" data-name="Group 14">
                    <g class="cls-11">
                      <g id="Group_12-6" data-name="Group 12-6">
                        <path id="Path_69-6" data-name="Path 69-6" class="cls-5" d="M1143.7,849.8l24.3-66.8c2.5-7,10.3-10.6,17.3-8l38.1,13.9c7,2.5,10.6,10.3,8,17.3l-24.3,66.8c-2.5,7-10.3,10.6-17.3,8l-38.1-13.9c-7-2.5-10.6-10.3-8-17.3"/>
                        <rect id="Rectangle_7-6" data-name="Rectangle 7-6" class="cls-5" x="950.7" y="886.2" width="187.6" height="12.8" transform="translate(-151.5 1568.8) rotate(-70)"/>
                        <path id="Path_70-6" data-name="Path 70-6" class="cls-5" d="M1204.4,1073.7l75.7-208.2c4.6-12.5-1.9-26.4-14.4-30.9h0l-29.2-10.6-19.1,52.6c-4.6,12.7-18.6,19.2-31.3,14.6h0l-38.1-13.9c-12.7-4.6-19.2-18.6-14.6-31.3h0l19.2-52.6-28-10.2c-12.5-4.6-26.4,1.9-30.9,14.4h0l-74.9,205.9c-2.6,7.2-10.6,10.9-17.8,8.3s-10.9-10.6-8.3-17.8l70.8-194.6-12-4.4-71.3,195.9c-4.8,13.1,2,27.5,15.1,32.3h0l178.2,64.8c12.5,4.6,26.4-1.9,30.9-14.4h0"/>
                      </g>
                    </g>
                  </g>
                  <g id="Group_16" data-name="Group 16">
                    <g class="cls-12">
                      <g id="Group_12-7" data-name="Group 12-7">
                        <path id="Path_69-7" data-name="Path 69-7" class="cls-5" d="M277.9,889.9l65.4-27.7c6.8-2.9,14.7.3,17.6,7.1l15.8,37.3c2.9,6.8-.3,14.7-7.1,17.6l-65.4,27.7c-6.8,2.9-14.7-.3-17.6-7.1l-15.8-37.3c-2.9-6.8.3-14.7,7.1-17.6"/>
                        <rect id="Rectangle_7-7" data-name="Rectangle 7-7" class="cls-5" x="85.2" y="839.9" width="187.6" height="12.8" transform="translate(-316.5 137.2) rotate(-23)"/>
                        <path id="Path_70-7" data-name="Path 70-7" class="cls-5" d="M155.6,1086.9l203.9-86.5c12.3-5.2,18-19.4,12.8-31.6h0l-12.1-28.6-51.5,21.9c-12.4,5.3-26.7-.5-32-12.9h0l-15.8-37.3c-5.3-12.4.5-26.7,12.9-32h0l51.5-21.9-11.7-27.5c-5.2-12.3-19.4-18-31.6-12.8h0l-201.6,85.6c-7,3-15.2-.3-18.2-7.3s.3-15.2,7.3-18.2l190.5-80.9-5-11.7-191.8,81.4c-12.8,5.4-18.8,20.2-13.3,33h0l74.1,174.5c5.2,12.3,19.4,18,31.6,12.8h0"/>
                      </g>
                    </g>
                  </g>
                  <g id="Group_17" data-name="Group 17">
                    <g class="cls-15">
                      <g id="Group_12-8" data-name="Group 12-8">
                        <path id="Path_69-8" data-name="Path 69-8" class="cls-5" d="M1035.6,343.5l53.7-33.6c5.6-3.5,13-1.8,16.5,3.8l19.2,30.7c3.5,5.6,1.8,13-3.8,16.5l-53.7,33.6c-5.6,3.5-13,1.8-16.5-3.8l-19.2-30.7c-3.5-5.6-1.8-13,3.8-16.5h0"/>
                        <rect id="Rectangle_7-8" data-name="Rectangle 7-8" class="cls-5" x="858.8" y="313.2" width="167.3" height="11.4" transform="translate(-25.8 547.9) rotate(-32)"/>
                        <path id="Path_70-8" data-name="Path 70-8" class="cls-5" d="M955.3,534.1l167.5-104.7c10.1-6.3,13.1-19.6,6.8-29.6l-14.7-23.5-42.3,26.5c-10.2,6.4-23.6,3.3-30-6.9l-19.2-30.7c-6.4-10.2-3.3-23.6,6.9-30l42.4-26.5-14.1-22.6c-6.3-10.1-19.6-13.1-29.6-6.8h0l-165.6,103.5c-5.7,3.7-13.4,2-17.1-3.7-3.7-5.7-2-13.4,3.7-17.1,0,0,.2-.1.3-.2l156.5-97.8-6-9.7-157.6,98.5c-10.5,6.6-13.7,20.4-7.1,30.9h0l89.6,143.4c6.3,10.1,19.6,13.1,29.6,6.8h0"/>
                      </g>
                    </g>
                  </g>
                  <g id="Group_24" data-name="Group 24">
                    <g class="cls-19">
                      <g id="Group_12-9" data-name="Group 12-9">
                        <path id="Path_69-9" data-name="Path 69-9" class="cls-5" d="M170.8,504.4l58.7,23.7c6.1,2.5,9.1,9.5,6.6,15.6l-13.5,33.5c-2.5,6.1-9.5,9.1-15.6,6.6l-58.7-23.7c-6.1-2.5-9.1-9.5-6.6-15.6l13.5-33.5c2.5-6.1,9.5-9.1,15.6-6.6h0"/>
                        <rect id="Rectangle_7-9" data-name="Rectangle 7-9" class="cls-5" x="130.3" y="331" width="11.4" height="167.3" transform="translate(-299.4 385.4) rotate(-68)"/>
                        <path id="Path_70-9" data-name="Path 70-9" class="cls-5" d="M-30.6,551.5l183.1,74c11,4.5,23.6-.9,28-11.9l10.4-25.7-46.3-18.7c-11.1-4.5-16.5-17.2-12-28.3l13.5-33.5c4.5-11.1,17.2-16.5,28.3-12l46.3,18.7,10-24.7c4.4-11-.9-23.5-11.9-28h0l-181.1-73.2c-6.4-2.5-9.5-9.6-7-16s9.6-9.5,16-7c0,0,.2,0,.3.1l171.1,69.1,4.3-10.6-172.3-69.6c-11.5-4.6-24.6.9-29.2,12.4h0l-63.3,156.8c-4.5,11,.9,23.6,11.9,28h0"/>
                      </g>
                    </g>
                  </g>
                  <g id="Group_25" data-name="Group 25">
                    <g class="cls-22">
                      <g id="Group_12-10" data-name="Group 12-10">
                        <path id="Path_70-10" data-name="Path 70-10" class="cls-5" d="M1272.8,551.5l183.1,74c11,4.5,23.6-.9,28-11.9l10.4-25.7-46.3-18.7c-11.1-4.5-16.5-17.2-12-28.3l13.5-33.5c4.5-11.1,17.2-16.5,28.3-12l46.3,18.7,10-24.7c4.4-11-.9-23.5-11.9-28h0l-181.1-73.2c-6.4-2.5-9.5-9.6-7-16s9.6-9.5,16-7c0,0,.2,0,.3.1l171.1,69.1,4.3-10.6-172.3-69.6c-11.5-4.6-24.6.9-29.2,12.4h0l-63.3,156.8c-4.5,11,.9,23.6,11.9,28h0"/>
                      </g>
                    </g>
                  </g>
                  <g id="Group_15" data-name="Group 15">
                    <g class="cls-18">
                      <g id="Group_12-11" data-name="Group 12-11">
                        <path id="Path_69-11" data-name="Path 69-11" class="cls-5" d="M498.2,416.8l-32.7-61.6c-3.4-6.5-1-14.5,5.5-17.9l35.2-18.7c6.5-3.4,14.5-1,17.9,5.5h0l32.7,61.6c3.4,6.5,1,14.5-5.5,17.9h0l-35.2,18.7c-6.5,3.4-14.5,1-17.9-5.5h0"/>
                        <rect id="Rectangle_7-11" data-name="Rectangle 7-11" class="cls-5" x="457.8" y="424.8" width="12.5" height="184.3" transform="translate(-188.4 278.4) rotate(-28)"/>
                        <path id="Path_70-11" data-name="Path 70-11" class="cls-5" d="M701.5,519.8l-102.1-192.2c-6.1-11.6-20.5-16-32.1-9.8h0l-26.9,14.3,25.8,48.6c6.2,11.7,1.8,26.2-9.9,32.4l-35.2,18.7c-11.7,6.2-26.2,1.8-32.4-9.9l-25.8-48.6-25.9,13.7c-11.6,6.1-16,20.5-9.8,32l101,190.1c3.5,6.6,1,14.9-5.6,18.4s-14.9,1-18.4-5.6h0l-95.4-179.6-11.1,5.9,96.1,180.9c6.4,12.1,21.4,16.7,33.5,10.2h0l164.5-87.4c11.6-6.1,16-20.5,9.8-32.1h0"/>
                      </g>
                    </g>
                  </g>
                  <g id="Group_26" data-name="Group 26">
                    <g class="cls-17">
                      <g id="Group_12-12" data-name="Group 12-12">
                        <path id="Path_69-12" data-name="Path 69-12" class="cls-5" d="M917.1,1305.6l28.2,48.9c3,5.1,1.2,11.7-3.9,14.6l-27.9,16.1c-5.1,3-11.7,1.2-14.6-3.9l-28.2-48.9c-3-5.1-1.2-11.7,3.9-14.6h0l27.9-16.1c5.1-3,11.7-1.2,14.6,3.9h0"/>
                        <rect id="Rectangle_7-12" data-name="Rectangle 7-12" class="cls-5" x="937.1" y="1148.7" width="10.2" height="149.3" transform="translate(-485.4 635) rotate(-30)"/>
                        <path id="Path_70-12" data-name="Path 70-12" class="cls-5" d="M749.7,1228l88.1,152.6c5.3,9.2,17,12.3,26.2,7h0l21.4-12.4-22.3-38.6c-5.4-9.3-2.2-21.2,7.1-26.5l27.9-16.1c9.3-5.4,21.1-2.2,26.5,7.1h0l22.3,38.6,20.6-11.9c9.2-5.3,12.3-17,7-26.2l-87.1-150.9c-3.1-5.2-1.4-12,3.9-15.1,5.2-3.1,12-1.4,15.1,3.9v.2l82.3,142.6,8.8-5.1-82.9-143.6c-5.5-9.6-17.8-12.9-27.4-7.3h0l-130.6,75.4c-9.2,5.3-12.3,17-7,26.2h0"/>
                      </g>
                    </g>
                  </g>
                  <g id="Group_27" data-name="Group 27">
                    <g class="cls-16">
                      <g id="Group_12-13" data-name="Group 12-13">
                        <path id="Path_69-13" data-name="Path 69-13" class="cls-5" d="M917.1,2.3l28.2,48.9c3,5.1,1.2,11.7-3.9,14.6l-27.9,16.1c-5.1,3-11.7,1.2-14.6-3.9l-28.2-48.9c-3-5.1-1.2-11.7,3.9-14.6h0l27.9-16.1c5.1-3,11.7-1.2,14.6,3.9h0"/>
                        <path id="Path_70-13" data-name="Path 70-13" class="cls-5" d="M749.7-75.2l88.1,152.6c5.3,9.2,17,12.3,26.2,7h0l21.4-12.4-22.3-38.6c-5.4-9.3-2.2-21.2,7.1-26.5l27.9-16.1c9.3-5.4,21.1-2.2,26.5,7.1h0l22.3,38.6,20.6-11.9c9.2-5.3,12.3-17,7-26.2l-87.1-150.9c-3.1-5.2-1.4-12,3.9-15.1,5.2-3.1,12-1.4,15.1,3.9v.2l82.3,142.6,8.8-5.1-82.9-143.6c-5.5-9.6-17.8-12.9-27.4-7.3h0l-130.6,75.4c-9.2,5.3-12.3,17-7,26.2h0"/>
                      </g>
                    </g>
                  </g>
                  <g id="Group_18" data-name="Group 18">
                    <g class="cls-20">
                      <g id="Group_12-14" data-name="Group 12-14">
                        <path id="Path_69-14" data-name="Path 69-14" class="cls-5" d="M437.1,5.6l-14.1-56.4c-1.5-5.9,2.1-11.9,8-13.4h0l32.2-8c5.9-1.5,11.9,2.1,13.4,8l14.1,56.4c1.5,5.9-2.1,11.9-8,13.4l-32.2,8c-5.9,1.5-11.9-2.1-13.4-8"/>
                        <rect id="Rectangle_7-14" data-name="Rectangle 7-14" class="cls-5" x="383.9" y="3.2" width="10.5" height="153.7" transform="translate(-7.8 96.5) rotate(-14)"/>
                        <path id="Path_70-14" data-name="Path 70-14" class="cls-5" d="M580.8,129.8l-43.9-176c-2.6-10.6-13.4-17-24-14.4l-24.7,6.2,11.1,44.5c2.7,10.7-3.8,21.6-14.6,24.2l-32.2,8c-10.7,2.7-21.5-3.8-24.2-14.6l-11.1-44.5-23.7,5.9c-10.6,2.6-17,13.4-14.4,23.9l43.4,174.1c1.5,6.1-2.2,12.2-8.3,13.8s-12.2-2.2-13.8-8.3L359.6,8.2l-10.1,2.5,41.3,165.6c2.8,11,13.9,17.8,25,15h0l150.7-37.6c10.6-2.6,17-13.4,14.4-24h0"/>
                      </g>
                    </g>
                  </g>
                  <g id="Group_19" data-name="Group 19">
                    <g class="cls-21">
                      <g id="Group_12-15" data-name="Group 12-15">
                        <path id="Path_69-15" data-name="Path 69-15" class="cls-5" d="M437.1,1307.6l-14.1-56.4c-1.5-5.9,2.1-11.9,8-13.4h0l32.2-8c5.9-1.5,11.9,2.1,13.4,8l14.1,56.4c1.5,5.9-2.1,11.9-8,13.4l-32.2,8c-5.9,1.5-11.9-2.1-13.4-8"/>
                        <path id="Path_70-15" data-name="Path 70-15" class="cls-5" d="M580.8,1431.8l-43.9-176c-2.6-10.6-13.4-17-24-14.4l-24.7,6.2,11.1,44.5c2.7,10.7-3.8,21.6-14.6,24.2l-32.2,8c-10.7,2.7-21.5-3.8-24.2-14.6l-11.1-44.5-23.7,5.9c-10.6,2.6-17,13.4-14.4,23.9l43.4,174.1c1.5,6.1-2.2,12.2-8.3,13.8s-12.2-2.2-13.8-8.3l-41-164.5-10.1,2.5,41.3,165.6c2.8,11,13.9,17.8,25,15h0l150.7-37.6c10.6-2.6,17-13.4,14.4-24h0"/>
                      </g>
                    </g>
                  </g>
                </g>
              </g>
            </g>
          </g>
        </g>
      </g>
    </g>
  </g>
</svg>